<?xml version="1.0" encoding="UTF-8" standalone="no"?>
<svg
   xmlns:dc="http://purl.org/dc/elements/1.1/"
   xmlns:cc="http://creativecommons.org/ns#"
   xmlns:rdf="http://www.w3.org/1999/02/22-rdf-syntax-ns#"
   xmlns:svg="http://www.w3.org/2000/svg"
   xmlns="http://www.w3.org/2000/svg"
   xmlns:sodipodi="http://sodipodi.sourceforge.net/DTD/sodipodi-0.dtd"
   xmlns:inkscape="http://www.inkscape.org/namespaces/inkscape"
   viewBox="0 0 1284.8267 650.45331"
   height="650.45331"
   width="1284.8267"
   xml:space="preserve"
   id="svg2"
   version="1.1"
   inkscape:version="0.91 r13725"
   sodipodi:docname="LESNET_LOGO_4CP.svg"><sodipodi:namedview
     pagecolor="#ffffff"
     bordercolor="#666666"
     borderopacity="1"
     objecttolerance="10"
     gridtolerance="10"
     guidetolerance="10"
     inkscape:pageopacity="0"
     inkscape:pageshadow="2"
     inkscape:window-width="1920"
     inkscape:window-height="1018"
     id="namedview19"
     showgrid="false"
     inkscape:zoom="0.896619"
     inkscape:cx="540.5588"
     inkscape:cy="317.16609"
     inkscape:window-x="-8"
     inkscape:window-y="-8"
     inkscape:window-maximized="1"
     inkscape:current-layer="svg2" /><metadata
     id="metadata8"><rdf:RDF><cc:Work
         rdf:about=""><dc:format>image/svg+xml</dc:format><dc:type
           rdf:resource="http://purl.org/dc/dcmitype/StillImage" /></cc:Work></rdf:RDF></metadata><defs
     id="defs6" /><g
     transform="matrix(2.0239276,0,0,-1.7900181,-665.47249,873.24107)"
     id="g10"><g
       transform="scale(0.1,0.1)"
       id="g12"><path
         id="path14"
         style="fill:#565353;fill-opacity:1;fill-rule:nonzero;stroke:none"
         d="m 3289.33,4338.57 3165.68,539.8 3181.22,-539.81 -0.63,-2559.87 -3175.4,-539.15 -3170.87,540.45 0,2558.58"
         inkscape:connector-curvature="0" /><path
         id="path16"
         style="fill:#fbbf16;fill-opacity:1;fill-rule:nonzero;stroke:none"
         d="m 9423.18,4169.87 -2966.23,506.17 -0.05,-3230.89 2967.86,504.53 -1.58,2220.19"
         inkscape:connector-curvature="0" /><path
         id="path18"
         style="fill:#f68b11;fill-opacity:1;fill-rule:nonzero;stroke:none"
         d="m 3490.85,4169.72 2966.23,506.17 0.05,-3230.89 -2967.85,504.53 1.57,2220.19"
         inkscape:connector-curvature="0" /><path
         id="path20"
         style="fill:#ffffff;fill-opacity:1;fill-rule:nonzero;stroke:none"
         d="m 7151.87,2518.93 -174.4,0 c -9.67,0 -14.43,0 -19.26,6.39 l -499.2,686.4 0,-668.82 c 0,-12.78 -11.21,-23.97 -23.96,-23.97 l -174.43,0 c -12.82,0 -23.97,11.19 -23.97,23.97 l 0,1041.66 c 0,12.81 11.15,24 23.97,24 l 174.43,0 c 7.95,0 17.52,-6.41 22.38,-11.19 l 496.02,-680.04 0,667.23 c -1.89,26.79 -2.87,24.83 24.02,24 l 174.4,0 c 12.81,0 23.96,-11.19 23.96,-24 l 0,-1041.66 c 0,-12.78 -11.15,-23.97 -23.96,-23.97"
         inkscape:connector-curvature="0" /><path
         id="path22"
         style="fill:#ffffff;fill-opacity:1;fill-rule:nonzero;stroke:none"
         d="m 8084.17,2518.93 -788.87,0 c -12.79,0 -24.02,11.19 -24.02,23.97 l 0,1041.66 c 0,12.81 11.23,24 24.02,24 l 752.52,0 c 12.76,0 22.39,-11.19 22.39,-24 l 0,-164.81 c 0,-12.79 -9.63,-22.38 -22.39,-22.38 l -538.1,0 0,-224.04 488,0 c 12.82,0 24.01,-11.2 24.01,-23.97 l 0,-164.84 c 0,-12.78 -11.19,-22.37 -24.01,-22.37 l -488,0 0,-232.03 574.45,0 c 12.75,0 22.36,-9.59 22.36,-22.38 l 0,-164.84 c 0,-12.78 -9.61,-23.97 -22.36,-23.97"
         inkscape:connector-curvature="0" /><path
         id="path24"
         style="fill:#ffffff;fill-opacity:1;fill-rule:nonzero;stroke:none"
         d="m 8929.66,3397.37 -280.06,0 0,-854.47 c 0,-12.78 -11.19,-23.97 -24,-23.97 l -190.41,0 c -12.76,0 -24.01,11.19 -24.01,23.97 l 0,854.47 -243.61,0 c -12.81,0 -24.01,9.59 -24.01,22.38 l 0,164.81 c 0,12.81 11.16,24 24.01,24 l 762.09,0 c 12.75,0 23.96,-11.19 23.96,-24 l 0,-164.81 c 0,-12.79 -11.21,-22.38 -23.96,-22.38"
         inkscape:connector-curvature="0" /><path
         id="path26"
         style="fill:#565353;fill-opacity:1;fill-rule:nonzero;stroke:none"
         d="m 4626.96,2520.71 -614.41,0 c -6.49,0 -11.25,4.78 -11.25,9.61 l 0,1068.85 c 0,6.4 4.76,11.19 11.25,11.19 l 62.38,0 c 6.39,0 9.59,-4.79 9.59,-9.59 l 0,-1004.89 542.44,0 c 6.37,0 11.16,-4.78 11.16,-9.59 l 0,-54.41 c 0,-6.39 -4.79,-11.17 -11.16,-11.17"
         inkscape:connector-curvature="0" /><path
         id="path28"
         style="fill:#565353;fill-opacity:1;fill-rule:nonzero;stroke:none"
         d="m 5422.08,2520.71 -735.98,0 c -6.46,0 -11.31,4.78 -11.31,9.61 l 0,1068.85 c 0,6.4 4.85,11.19 11.31,11.19 l 735.98,0 c 4.77,0 9.63,-4.79 9.63,-9.59 l 0,-54.42 c 0,-6.38 -4.86,-11.17 -9.63,-11.17 l -664.02,0 0,-430.43 579.22,0 c 6.38,0 11.17,-4.8 11.17,-9.59 l 0,-54.39 c 0,-6.43 -4.79,-11.21 -11.17,-11.21 l -579.22,0 0,-433.68 664.02,0 c 4.77,0 9.63,-4.78 9.63,-9.59 l 0,-54.41 c 0,-6.39 -4.86,-11.17 -9.63,-11.17"
         inkscape:connector-curvature="0" /><path
         id="path30"
         style="fill:#565353;fill-opacity:1;fill-rule:nonzero;stroke:none"
         d="m 5781.16,2506.31 c -169.65,0 -267.24,52.82 -343.98,115.22 -4.81,3.2 -4.81,9.59 -1.64,14.39 l 40,49.61 c 3.22,4.81 9.61,4.81 14.45,1.6 62.4,-51.21 140.78,-102.42 291.17,-102.42 191.99,0 288.03,92.8 288.03,233.62 0,143.98 -142.38,180.82 -276.82,222.44 -60.84,19.18 -123.16,36.79 -182.44,60.78 -100.76,43.22 -187.22,104.02 -187.22,240.02 0,179.22 134.47,281.58 374.49,281.58 135.99,0 235.19,-44.75 297.59,-86.41 4.77,-3.16 6.37,-11.15 3.17,-15.95 l -35.2,-51.21 c -3.18,-4.81 -9.55,-6.39 -14.41,-3.21 -47.95,33.58 -131.21,76.8 -251.15,76.8 -214.42,0 -289.63,-86.43 -289.63,-201.6 0,-153.65 163.2,-176.02 297.6,-220.84 24,-7.99 57.57,-15.98 94.47,-28.77 119.94,-36.84 254.41,-105.63 254.41,-273.63 0,-198.4 -148.86,-312.02 -372.89,-312.02"
         inkscape:connector-curvature="0" /><path
         id="path32"
         style="fill:#ffffff;fill-opacity:1;fill-rule:nonzero;stroke:none"
         d="m 5737.86,4552.92 748.79,-995.2 -212.69,-41.33 -762.33,998.62"
         inkscape:connector-curvature="0" /><path
         id="path34"
         style="fill:#ffffff;fill-opacity:1;fill-rule:nonzero;stroke:none"
         d="m 5980.36,4594.32 980.88,-1318.19 2.85,-283.48 -1174.82,1569.17"
         inkscape:connector-curvature="0" /><path
         id="path36"
         style="fill:#ffffff;fill-opacity:1;fill-rule:nonzero;stroke:none"
         d="m 6199.58,4631.98 763.09,-1026.78 -1.43,-252.14 -932.69,1249.76"
         inkscape:connector-curvature="0" /></g></g></svg>